{
  "accessors": [
    {
      "bufferView": 1,
      "componentType": 5126,
      "count": 4819,
      "max": [
        1.5267499685287476,
        0.55364000797271729,
        0.29648000001907349
      ],
      "min": [
        -1.5267499685287476,
        -0.94989001750946045,
        -0.79865002632141113
      ],
      "type": "VEC3"
    },
    {
      "bufferView": 1,
      "byteOffset": 57828,
      "componentType": 5126,
      "count": 4819,
      "max": [
        0.99983072280883789,
        0.72443503141403198,
        0.99997276067733765
      ],
      "min": [
        -0.99982404708862305,
        -0.97850716114044189,
        -0.10297217965126038
      ],
      "type": "VEC3"
    },
    {
      "bufferView": 2,
      "componentType": 5126,
      "count": 4819,
      "max": [
        0.99988555908203125,
        0.97600412368774414,
        0.95575803518295288,
        1
      ],
      "min": [
        -0.99988430738449097,
        -0.99989867210388184,
        -0.99994629621505737,
        -1
      ],
      "type": "VEC4"
    },
    {
      "bufferView": 1,
      "byteOffset": 115656,
      "componentType": 5126,
      "count": 4819,
      "max": [
        1,
        1,
        1
      ],
      "min": [
        1,
        1,
        1
      ],
      "type": "VEC3"
    },
    {
      "bufferView": 0,
      "componentType": 5125,
      "count": 22848,
      "max": [
        4818
      ],
      "min": [
        0
      ],
      "type": "SCALAR"
    },
    {
      "bufferView": 1,
      "byteOffset": 173484,
      "componentType": 5126,
      "count": 3961,
      "max": [
        0.28584000468254089,
        0.94734001159667969,
        0.96241998672485352
      ],
      "min": [
        -0.28584000468254089,
        -0.99101001024246216,
        -0.96619999408721924
      ],
      "type": "VEC3"
    },
    {
      "bufferView": 1,
      "byteOffset": 221016,
      "componentType": 5126,
      "count": 3961,
      "max": [
        0.95257049798965454,
        0.99999326467514038,
        0.99999982118606567
      ],
      "min": [
        -0.95113152265548706,
        -0.99926680326461792,
        -0.89488315582275391
      ],
      "type": "VEC3"
    },
    {
      "bufferView": 2,
      "byteOffset": 77104,
      "componentType": 5126,
      "count": 3961,
      "max": [
        1,
        0.99999052286148071,
        0.99929565191268921,
        1
      ],
      "min": [
        -1,
        -0.99987280368804932,
        -0.99991506338119507,
        -1
      ],
      "type": "VEC4"
    },
    {
      "bufferView": 1,
      "byteOffset": 268548,
      "componentType": 5126,
      "count": 3961,
      "max": [
        1,
        1,
        1
      ],
      "min": [
        0.99607998132705688,
        0.99607998132705688,
        0.99607998132705688
      ],
      "type": "VEC3"
    },
    {
      "bufferView": 0,
      "byteOffset": 91392,
      "componentType": 5125,
      "count": 18816,
      "max": [
        3960
      ],
      "min": [
        0
      ],
      "type": "SCALAR"
    },
    {
      "bufferView": 1,
      "byteOffset": 316080,
      "componentType": 5126,
      "count": 2592,
      "max": [
        1.5151400566101074,
        0.81497001647949219,
        1.0785499811172485
      ],
      "min": [
        -1.5158799886703491,
        -0.73572999238967896,
        -0.79672998189926147
      ],
      "type": "VEC3"
    },
    {
      "bufferView": 1,
      "byteOffset": 347184,
      "componentType": 5126,
      "count": 2592,
      "max": [
        0.99880689382553101,
        0.9999963641166687,
        0.99997633695602417
      ],
      "min": [
        -0.99880689382553101,
        -0.99894607067108154,
        -0.85358220338821411
      ],
      "type": "VEC3"
    },
    {
      "bufferView": 2,
      "byteOffset": 140480,
      "componentType": 5126,
      "count": 2592,
      "max": [
        0.9999658465385437,
        0.90451729297637939,
        0.99896639585494995,
        1
      ],
      "min": [
        -0.99996489286422729,
        -0.9127192497253418,
        -0.96029150485992432,
        -1
      ],
      "type": "VEC4"
    },
    {
      "bufferView": 1,
      "byteOffset": 378288,
      "componentType": 5126,
      "count": 2592,
      "max": [
        1,
        1,
        1
      ],
      "min": [
        1,
        1,
        1
      ],
      "type": "VEC3"
    },
    {
      "bufferView": 0,
      "byteOffset": 166656,
      "componentType": 5125,
      "count": 12288,
      "max": [
        2591
      ],
      "min": [
        0
      ],
      "type": "SCALAR"
    },
    {
      "bufferView": 1,
      "byteOffset": 409392,
      "componentType": 5126,
      "count": 1814,
      "max": [
        0.51315999031066895,
        0.69991999864578247,
        0.13097000122070312
      ],
      "min": [
        -0.51886999607086182,
        -0.94933998584747314,
        -1.273669958114624
      ],
      "type": "VEC3"
    },
    {
      "bufferView": 1,
      "byteOffset": 431160,
      "componentType": 5126,
      "count": 1814,
      "max": [
        0.88975578546524048,
        0.99872809648513794,
        0.96657824516296387
      ],
      "min": [
        -0.79922914505004883,
        -0.99462795257568359,
        -0.75230163335800171
      ],
      "type": "VEC3"
    },
    {
      "bufferView": 2,
      "byteOffset": 181952,
      "componentType": 5126,
      "count": 1814,
      "max": [
        1,
        0.75230169296264648,
        0.52776807546615601,
        1
      ],
      "min": [
        -1,
        -0.88827639818191528,
        -0.95240968465805054,
        -1
      ],
      "type": "VEC4"
    },
    {
      "bufferView": 1,
      "byteOffset": 452928,
      "componentType": 5126,
      "count": 1814,
      "max": [
        1,
        1,
        1
      ],
      "min": [
        0.99607998132705688,
        0.99607998132705688,
        0.99607998132705688
      ],
      "type": "VEC3"
    },
    {
      "bufferView": 0,
      "byteOffset": 215808,
      "componentType": 5125,
      "count": 8640,
      "max": [
        1813
      ],
      "min": [
        0
      ],
      "type": "SCALAR"
    },
    {
      "bufferView": 1,
      "byteOffset": 474696,
      "componentType": 5126,
      "count": 65532,
      "max": [
        1.6361099481582642,
        0.9524800181388855,
        2.1396400928497314
      ],
      "min": [
        -1.6361099481582642,
        -1.0450700521469116,
        -1.4269499778747559
      ],
      "type": "VEC3"
    },
    {
      "bufferView": 1,
      "byteOffset": 1261080,
      "componentType": 5126,
      "count": 65532,
      "max": [
        0.9999961256980896,
        0.99999946355819702,
        1
      ],
      "min": [
        -1,
        -1,
        -1
      ],
      "type": "VEC3"
    },
    {
      "bufferView": 2,
      "byteOffset": 210976,
      "componentType": 5126,
      "count": 65532,
      "max": [
        1,
        1,
        1,
        1
      ],
      "min": [
        -1,
        -0.99994301795959473,
        -1,
        -1
      ],
      "type": "VEC4"
    },
    {
      "bufferView": 1,
      "byteOffset": 2047464,
      "componentType": 5126,
      "count": 65532,
      "max": [
        1,
        1,
        1
      ],
      "min": [
        0.99607998132705688,
        0.99607998132705688,
        0.99607998132705688
      ],
      "type": "VEC3"
    },
    {
      "bufferView": 0,
      "byteOffset": 250368,
      "componentType": 5125,
      "count": 310635,
      "max": [
        65531
      ],
      "min": [
        0
      ],
      "type": "SCALAR"
    },
    {
      "bufferView": 1,
      "byteOffset": 2833848,
      "componentType": 5126,
      "count": 65532,
      "max": [
        1.6361099481582642,
        0.9524800181388855,
        2.1396400928497314
      ],
      "min": [
        -1.6361099481582642,
        -1.0450700521469116,
        -1.4269499778747559
      ],
      "type": "VEC3"
    },
    {
      "bufferView": 1,
      "byteOffset": 3620232,
      "componentType": 5126,
      "count": 65532,
      "max": [
        1,
        0.99999946355819702,
        1
      ],
      "min": [
        -1,
        -1,
        -1
      ],
      "type": "VEC3"
    },
    {
      "bufferView": 2,
      "byteOffset": 1259488,
      "componentType": 5126,
      "count": 65532,
      "max": [
        1,
        1,
        1,
        1
      ],
      "min": [
        -1,
        -1,
        -1,
        -1
      ],
      "type": "VEC4"
    },
    {
      "bufferView": 1,
      "byteOffset": 4406616,
      "componentType": 5126,
      "count": 65532,
      "max": [
        1,
        1,
        1
      ],
      "min": [
        0.99607998132705688,
        0.99607998132705688,
        0.99607998132705688
      ],
      "type": "VEC3"
    },
    {
      "bufferView": 0,
      "byteOffset": 1492908,
      "componentType": 5125,
      "count": 310593,
      "max": [
        65531
      ],
      "min": [
        0
      ],
      "type": "SCALAR"
    },
    {
      "bufferView": 1,
      "byteOffset": 5193000,
      "componentType": 5126,
      "count": 787,
      "max": [
        0.5,
        0.94133001565933228,
        0.9385799765586853
      ],
      "min": [
        -0.46066001057624817,
        -0.62869000434875488,
        0.094800002872943878
      ],
      "type": "VEC3"
    },
    {
      "bufferView": 1,
      "byteOffset": 5202444,
      "componentType": 5126,
      "count": 787,
      "max": [
        1,
        0.99981963634490967,
        0.93431001901626587
      ],
      "min": [
        -0.99972373247146606,
        -0.2621263861656189,
        -0.018429985269904137
      ],
      "type": "VEC3"
    },
    {
      "bufferView": 2,
      "byteOffset": 2308000,
      "componentType": 5126,
      "count": 787,
      "max": [
        0.92904198169708252,
        0.91400212049484253,
        0.26330932974815369,
        -1
      ],
      "min": [
        -0.92972660064697266,
        -1,
        -0.99983859062194824,
        -1
      ],
      "type": "VEC4"
    },
    {
      "bufferView": 1,
      "byteOffset": 5211888,
      "componentType": 5126,
      "count": 787,
      "max": [
        1,
        1,
        1
      ],
      "min": [
        1,
        1,
        1
      ],
      "type": "VEC3"
    },
    {
      "bufferView": 0,
      "byteOffset": 2735280,
      "componentType": 5125,
      "count": 3684,
      "max": [
        786
      ],
      "min": [
        0
      ],
      "type": "SCALAR"
    }
  ],
  "asset": {
    "extras": {
      "author": "aung (https://sketchfab.com/aung)",
      "license": "CC-BY-4.0 (http://creativecommons.org/licenses/by/4.0/)",
      "source": "https://sketchfab.com/models/788a90ba58eb45c3898c59c404fb263c",
      "title": "Space Ship"
    },
    "generator": "Sketchfab-3.20.7",
    "version": "2.0"
  },
  "bufferViews": [
    {
      "buffer": 0,
      "byteLength": 2750016,
      "byteOffset": 0,
      "name": "floatBufferViews",
      "target": 34963
    },
    {
      "buffer": 0,
      "byteLength": 5221332,
      "byteOffset": 2750016,
      "byteStride": 12,
      "name": "floatBufferViews",
      "target": 34962
    },
    {
      "buffer": 0,
      "byteLength": 2320592,
      "byteOffset": 7971348,
      "byteStride": 16,
      "name": "floatBufferViews",
      "target": 34962
    }
  ],
  "buffers": [
    {
      "byteLength": 10291940,
      "uri": "scene.bin"
    }
  ],
  "extensionsRequired": [
    "KHR_materials_pbrSpecularGlossiness"
  ],
  "extensionsUsed": [
    "KHR_materials_pbrSpecularGlossiness"
  ],
  "materials": [
    {
      "alphaMode": "BLEND",
      "doubleSided": true,
      "emissiveFactor": [
        0.0285619264,
        0.68722679936000008,
        1
      ],
      "extensions": {
        "KHR_materials_pbrSpecularGlossiness": {
          "diffuseFactor": [
            0.069357137200000002,
            0.068123981099999995,
            0.068123981099999995,
            0.91000000000000003
          ],
          "glossinessFactor": 0.90344828369999997,
          "specularFactor": [
            0.083791442199999996,
            0.1272787303,
            0.38437479730000002
          ]
        }
      },
      "name": "Material.005"
    },
    {
      "doubleSided": true,
      "emissiveFactor": [
        0,
        0,
        0
      ],
      "extensions": {
        "KHR_materials_pbrSpecularGlossiness": {
          "diffuseFactor": [
            0,
            0.23509307099999999,
            1,
            1
          ],
          "glossinessFactor": 0.93000000000000005,
          "specularFactor": [
            0.1790150717,
            0,
            1
          ]
        }
      },
      "name": "Material.002"
    },
    {
      "doubleSided": true,
      "emissiveFactor": [
        0,
        0,
        0
      ],
      "extensions": {
        "KHR_materials_pbrSpecularGlossiness": {
          "diffuseFactor": [
            0.24383786809999999,
            0.24383786809999999,
            0.24383786809999999,
            1
          ],
          "glossinessFactor": 1,
          "specularFactor": [
            0.067253681900000001,
            0.067253681900000001,
            0.067253681900000001
          ]
        }
      },
      "name": "Material.008"
    },
    {
      "doubleSided": false,
      "emissiveFactor": [
        0.43551656799999999,
        1,
        1
      ],
      "extensions": {
        "KHR_materials_pbrSpecularGlossiness": {
          "diffuseFactor": [
            0,
            0.0257463668,
            0.97006797909999998,
            1
          ],
          "glossinessFactor": 0.40000000000000002,
          "specularFactor": [
            0,
            0.0925066477,
            1
          ]
        }
      },
      "name": "Material.003"
    },
    {
      "doubleSided": true,
      "emissiveFactor": [
        0,
        0,
        0
      ],
      "extensions": {
        "KHR_materials_pbrSpecularGlossiness": {
          "diffuseFactor": [
            0.067253681900000001,
            0.067253681900000001,
            0.067253681900000001,
            1
          ],
          "glossinessFactor": 0.94999999999999996,
          "specularFactor": [
            0.18833124640000001,
            0.18833124640000001,
            0.18833124640000001
          ]
        }
      },
      "name": "Material.004"
    }
  ],
  "meshes": [
    {
      "name": "newss_0",
      "primitives": [
        {
          "attributes": {
            "COLOR_0": 3,
            "NORMAL": 1,
            "POSITION": 0,
            "TANGENT": 2
          },
          "indices": 4,
          "material": 0,
          "mode": 4
        }
      ]
    },
    {
      "name": "newss_1",
      "primitives": [
        {
          "attributes": {
            "COLOR_0": 8,
            "NORMAL": 6,
            "POSITION": 5,
            "TANGENT": 7
          },
          "indices": 9,
          "material": 1,
          "mode": 4
        }
      ]
    },
    {
      "name": "newss_2",
      "primitives": [
        {
          "attributes": {
            "COLOR_0": 13,
            "NORMAL": 11,
            "POSITION": 10,
            "TANGENT": 12
          },
          "indices": 14,
          "material": 2,
          "mode": 4
        }
      ]
    },
    {
      "name": "newss_3",
      "primitives": [
        {
          "attributes": {
            "COLOR_0": 18,
            "NORMAL": 16,
            "POSITION": 15,
            "TANGENT": 17
          },
          "indices": 19,
          "material": 3,
          "mode": 4
        }
      ]
    },
    {
      "name": "newss_4",
      "primitives": [
        {
          "attributes": {
            "COLOR_0": 23,
            "NORMAL": 21,
            "POSITION": 20,
            "TANGENT": 22
          },
          "indices": 24,
          "material": 4,
          "mode": 4
        }
      ]
    },
    {
      "name": "newss_4",
      "primitives": [
        {
          "attributes": {
            "COLOR_0": 28,
            "NORMAL": 26,
            "POSITION": 25,
            "TANGENT": 27
          },
          "indices": 29,
          "material": 4,
          "mode": 4
        }
      ]
    },
    {
      "name": "newss_4",
      "primitives": [
        {
          "attributes": {
            "COLOR_0": 33,
            "NORMAL": 31,
            "POSITION": 30,
            "TANGENT": 32
          },
          "indices": 34,
          "material": 4,
          "mode": 4
        }
      ]
    }
  ],
  "nodes": [
    {
      "children": [
        1
      ],
      "name": "RootNode (gltf orientation matrix)",
      "rotation": [
        -0.70710678118654746,
        -0,
        -0,
        0.70710678118654757
      ]
    },
    {
      "children": [
        2
      ],
      "matrix": [
        0,
        1,
        0,
        0,
        -1,
        0,
        0,
        0,
        0,
        0,
        1,
        0,
        -0.11476367712020874,
        0.11272583156824112,
        0,
        1
      ],
      "name": "RootNode (model correction matrix)"
    },
    {
      "children": [
        3
      ],
      "name": "Root"
    },
    {
      "children": [
        4,
        5,
        6,
        7,
        8,
        9,
        10
      ],
      "matrix": [
        0,
        -1.2053099999999999,
        -0,
        0,
        2.2675100000000006,
        0,
        0,
        0,
        -0,
        -0,
        0.34793000000000007,
        0,
        -0.0087700000000000035,
        -0.0010200000000000003,
        1.04715,
        1
      ],
      "name": "newss"
    },
    {
      "mesh": 0,
      "name": "newss_0"
    },
    {
      "mesh": 1,
      "name": "newss_1"
    },
    {
      "mesh": 2,
      "name": "newss_2"
    },
    {
      "mesh": 3,
      "name": "newss_3"
    },
    {
      "mesh": 4,
      "name": "newss_4"
    },
    {
      "mesh": 5,
      "name": "newss_4"
    },
    {
      "mesh": 6,
      "name": "newss_4"
    }
  ],
  "scene": 0,
  "scenes": [
    {
      "name": "OSG_Scene",
      "nodes": [
        0
      ]
    }
  ]
}

